<svg width="20" height="20" viewBox="0 0 20 20" fill="none" xmlns="http://www.w3.org/2000/svg">
<path d="M1.66699 10.0001C1.66699 14.6026 5.39783 18.3334 10.0003 18.3334C14.6028 18.3334 18.3337 14.6026 18.3337 10.0001C18.3337 5.39758 14.6028 1.66675 10.0003 1.66675C5.39783 1.66675 1.66699 5.39758 1.66699 10.0001Z" stroke="#838383" stroke-width="1.5" stroke-linecap="round" stroke-linejoin="round"/>
<path d="M10.834 1.7085C10.834 1.7085 13.334 5.00016 13.334 10.0002C13.334 15.0002 10.834 18.2918 10.834 18.2918" stroke="#838383" stroke-width="1.5" stroke-linecap="round" stroke-linejoin="round"/>
<path d="M9.16699 18.2918C9.16699 18.2918 6.66699 15.0002 6.66699 10.0002C6.66699 5.00016 9.16699 1.7085 9.16699 1.7085" stroke="#838383" stroke-width="1.5" stroke-linecap="round" stroke-linejoin="round"/>
<path d="M2.19238 12.9167H17.8091" stroke="#838383" stroke-width="1.5" stroke-linecap="round" stroke-linejoin="round"/>
<path d="M2.19238 7.0835H17.8091" stroke="#838383" stroke-width="1.5" stroke-linecap="round" stroke-linejoin="round"/>
</svg>
